<svg width="22" height="22" viewBox="0 0 22 22" fill="none" xmlns="http://www.w3.org/2000/svg">
<path fill-rule="evenodd" clip-rule="evenodd" d="M6.9176 14.2316C6.77531 14.2316 6.63213 14.1862 6.51119 14.0937C6.21949 13.8688 6.16436 13.4499 6.38935 13.1582L9.05106 9.69876C9.15956 9.55736 9.32053 9.46576 9.49661 9.44353C9.67625 9.42041 9.85234 9.47021 9.99196 9.58138L12.4998 11.5512L14.6938 8.72052C14.9196 8.42794 15.3376 8.37369 15.6293 8.60135C15.921 8.82724 15.9744 9.2461 15.7485 9.53691L13.1428 12.8985C13.0343 13.039 12.8742 13.1306 12.6981 13.152C12.5203 13.176 12.3442 13.1244 12.2037 13.015L9.6976 11.0461L7.44674 13.971C7.31513 14.1418 7.1177 14.2316 6.9176 14.2316Z" fill="black"/>
<mask id="mask0_153_169" style="mask-type:luminance" maskUnits="userSpaceOnUse" x="15" y="1" width="6" height="6">
<path fill-rule="evenodd" clip-rule="evenodd" d="M15.881 1.77881H20.6335V6.5321H15.881V1.77881Z" fill="white"/>
</mask>
<g mask="url(#mask0_153_169)">
<path fill-rule="evenodd" clip-rule="evenodd" d="M18.2572 3.11278C17.6827 3.11278 17.215 3.57967 17.215 4.15505C17.215 4.72955 17.6827 5.19822 18.2572 5.19822C18.8317 5.19822 19.2995 4.72955 19.2995 4.15505C19.2995 3.57967 18.8317 3.11278 18.2572 3.11278M18.2572 6.53219C16.9473 6.53219 15.881 5.4659 15.881 4.15505C15.881 2.84421 16.9473 1.77881 18.2572 1.77881C19.5681 1.77881 20.6335 2.84421 20.6335 4.15505C20.6335 5.4659 19.5681 6.53219 18.2572 6.53219" fill="black"/>
</g>
<mask id="mask1_153_169" style="mask-type:luminance" maskUnits="userSpaceOnUse" x="2" y="2" width="18" height="19">
<path fill-rule="evenodd" clip-rule="evenodd" d="M2.27869 2.52759H19.9421V20.1902H2.27869V2.52759Z" fill="white"/>
</mask>
<g mask="url(#mask1_153_169)">
<path fill-rule="evenodd" clip-rule="evenodd" d="M14.9362 20.1902H7.28451C4.29019 20.1902 2.27856 18.087 2.27856 14.9566V7.7692C2.27856 4.63437 4.29019 2.52759 7.28451 2.52759H13.748C14.1162 2.52759 14.415 2.8264 14.415 3.19457C14.415 3.56275 14.1162 3.86156 13.748 3.86156H7.28451C5.05411 3.86156 3.61253 5.39473 3.61253 7.7692V14.9566C3.61253 17.3622 5.01943 18.8563 7.28451 18.8563H14.9362C17.1666 18.8563 18.6081 17.3258 18.6081 14.9566V8.69675C18.6081 8.32858 18.9069 8.02977 19.2751 8.02977C19.6433 8.02977 19.9421 8.32858 19.9421 8.69675V14.9566C19.9421 18.087 17.9305 20.1902 14.9362 20.1902Z" fill="black"/>
</g>
</svg>
