<svg width="19" height="20" viewBox="0 0 19 20" fill="none" xmlns="http://www.w3.org/2000/svg">
<path fill-rule="evenodd" clip-rule="evenodd" d="M10.42 12.7093C11.4908 12.7093 12.3623 13.5746 12.3623 14.6382V17.3737C12.3623 17.6023 12.5455 17.7855 12.7803 17.7908H14.4753C15.811 17.7908 16.8969 16.7183 16.8969 15.4003V7.64195C16.8907 7.1884 16.6746 6.76153 16.3037 6.47784L10.4405 1.80183C9.65343 1.17842 8.55246 1.17842 7.76275 1.80361L1.93953 6.47606C1.55446 6.76865 1.33836 7.19552 1.33391 7.65707V15.4003C1.33391 16.7183 2.41976 17.7908 3.75551 17.7908H5.46655C5.70755 17.7908 5.9032 17.5996 5.9032 17.3648C5.9032 17.3132 5.90943 17.2617 5.9201 17.2127V14.6382C5.9201 13.5808 6.78629 12.7164 7.84902 12.7093H10.42ZM14.4753 19.1249H12.7643C11.7843 19.1018 11.0284 18.3325 11.0284 17.3738V14.6383C11.0284 14.3102 10.7554 14.0434 10.4201 14.0434H7.85352C7.52537 14.0451 7.25413 14.3128 7.25413 14.6383V17.3649C7.25413 17.4316 7.24523 17.4957 7.22656 17.5562C7.13051 18.4366 6.37815 19.1249 5.46661 19.1249H3.75557C1.68436 19.1249 0 17.4539 0 15.4005V7.65098C0.00889313 6.76701 0.416198 5.95773 1.11965 5.42503L6.93131 0.760585C8.21103 -0.253232 9.9941 -0.253232 11.2712 0.758806L17.1246 5.4277C17.8121 5.9515 18.2194 6.759 18.2309 7.63231V15.4005C18.2309 17.4539 16.5466 19.1249 14.4753 19.1249Z" fill="white"/>
</svg>
