<svg width="22" height="22" viewBox="0 0 22 22" fill="none" xmlns="http://www.w3.org/2000/svg">
<path fill-rule="evenodd" clip-rule="evenodd" d="M11.1718 3.11253C7.00361 3.11253 3.61266 6.50348 3.61266 10.6717C3.61266 14.8399 7.00361 18.2309 11.1718 18.2309C15.34 18.2309 18.731 14.8399 18.731 10.6717C18.731 6.50348 15.34 3.11253 11.1718 3.11253M11.1718 19.5648C6.26814 19.5648 2.27869 15.5754 2.27869 10.6717C2.27869 5.76802 6.26814 1.77856 11.1718 1.77856C16.0755 1.77856 20.0649 5.76802 20.0649 10.6717C20.0649 15.5754 16.0755 19.5648 11.1718 19.5648" fill="black"/>
<path fill-rule="evenodd" clip-rule="evenodd" d="M14.2232 13.9555C14.1067 13.9555 13.9893 13.9252 13.8817 13.8621L10.529 11.862C10.328 11.7411 10.2035 11.5232 10.2035 11.2884V6.97704C10.2035 6.60887 10.5023 6.31006 10.8705 6.31006C11.2395 6.31006 11.5375 6.60887 11.5375 6.97704V10.9096L14.5656 12.7149C14.8813 12.9043 14.9853 13.3134 14.7968 13.63C14.6714 13.839 14.45 13.9555 14.2232 13.9555Z" fill="black"/>
</svg>
