<svg width="21" height="22" viewBox="0 0 21 22" fill="none" xmlns="http://www.w3.org/2000/svg">
<path fill-rule="evenodd" clip-rule="evenodd" d="M11.717 14.5388C12.921 14.5388 13.901 15.5118 13.901 16.7078V19.7838C13.901 20.0408 14.107 20.2468 14.371 20.2528H16.277C17.779 20.2528 19 19.0468 19 17.5648V8.84081C18.993 8.33081 18.75 7.85081 18.333 7.53181L11.74 2.27381C10.855 1.57281 9.617 1.57281 8.729 2.27581L2.181 7.52981C1.748 7.85881 1.505 8.33881 1.5 8.85781V17.5648C1.5 19.0468 2.721 20.2528 4.223 20.2528H6.147C6.418 20.2528 6.638 20.0378 6.638 19.7738C6.638 19.7158 6.645 19.6578 6.657 19.6028V16.7078C6.657 15.5188 7.631 14.5468 8.826 14.5388H11.717ZM16.277 21.7528H14.353C13.251 21.7268 12.401 20.8618 12.401 19.7838V16.7078C12.401 16.3388 12.094 16.0388 11.717 16.0388H8.831C8.462 16.0408 8.157 16.3418 8.157 16.7078V19.7738C8.157 19.8488 8.147 19.9208 8.126 19.9888C8.018 20.9788 7.172 21.7528 6.147 21.7528H4.223C1.894 21.7528 0 19.8738 0 17.5648V8.85081C0.01 7.85681 0.468 6.94681 1.259 6.34781L7.794 1.10281C9.233 -0.0371912 11.238 -0.0371913 12.674 1.10081L19.256 6.35081C20.029 6.93981 20.487 7.84781 20.5 8.82981V17.5648C20.5 19.8738 18.606 21.7528 16.277 21.7528Z" fill="black"/>
</svg>
