<svg width="13" height="15" viewBox="0 0 13 15" fill="none" xmlns="http://www.w3.org/2000/svg">
<path d="M10.4142 10.6189L9.58251 11.4415C8.96946 12.0426 8.17425 12.8161 7.19617 13.762C6.9022 14.0462 6.50929 14.2051 6.10038 14.2051C5.69148 14.2051 5.29857 14.0462 5.0046 13.762L2.5587 11.3826C2.25043 11.0806 1.99399 10.8263 1.78661 10.6189C0.933498 9.76576 0.352537 8.67877 0.117188 7.49542C-0.118161 6.31208 0.00267227 5.08552 0.464409 3.97084C0.926145 2.85617 1.70805 1.90345 2.71124 1.23315C3.71443 0.562848 4.89386 0.205078 6.10038 0.205078C7.30691 0.205078 8.48634 0.562848 9.48953 1.23315C10.4927 1.90345 11.2746 2.85617 11.7364 3.97084C12.1981 5.08552 12.3189 6.31208 12.0836 7.49542C11.8482 8.67877 11.2673 9.76576 10.4142 10.6189ZM7.85196 6.49782C7.85196 6.03328 7.66742 5.58776 7.33893 5.25927C7.01045 4.93079 6.56493 4.74625 6.10038 4.74625C5.63584 4.74625 5.19032 4.93079 4.86184 5.25927C4.53335 5.58776 4.34881 6.03328 4.34881 6.49782C4.34881 6.96237 4.53335 7.40789 4.86184 7.73637C5.19032 8.06486 5.63584 8.2494 6.10038 8.2494C6.56493 8.2494 7.01045 8.06486 7.33893 7.73637C7.66742 7.40789 7.85196 6.96237 7.85196 6.49782Z" fill="#F37171"/>
</svg>
